<?xml version="1.0" encoding="utf-8"?>
<!-- Generator: Adobe Illustrator 21.0.2, SVG Export Plug-In . SVG Version: 6.00 Build 0)  -->
<svg version="1.1" id="Layer_1" xmlns="http://www.w3.org/2000/svg" xmlns:xlink="http://www.w3.org/1999/xlink" x="0px" y="0px"
	 viewBox="0 0 986.8 246.7" style="enable-background:new 0 0 986.8 246.7;" xml:space="preserve">
<style type="text/css">
	.st0{fill:#0F2133;}
</style>
<g>
	<path class="st0" d="M123.3,171.8C123.3,171.8,123.4,171.8,123.3,171.8C123.4,171.8,123.4,171.8,123.3,171.8L123.3,171.8z
		 M70.6,168.5c-8.3,8.2-18.5,23.1-19.7,27.3c4.3-1.2,19.1-11.4,27.3-19.7C87.8,166.4,89,158,89,157.7
		C89,157.7,80.4,158.7,70.6,168.5 M89,157.6C89,157.6,89,157.7,89,157.6L89,157.6L89,157.6z M123.4,171.8c-0.2,0.2-5.5,3.8-4.7,24.1
		c0.3,6.8,1.2,45.8,4.7,50.8h0c3.5-4.9,4.4-44,4.7-50.8C128.8,175.6,123.6,171.9,123.4,171.8 M84.2,180.8
		c8.2,5.7,17.4,9.4,26.8,11.1l1-6.3c-8.5-1.6-16.7-5-24.1-10L84.2,180.8z M171.8,123.3C171.8,123.3,171.8,123.3,171.8,123.3
		C171.8,123.3,171.8,123.3,171.8,123.3L171.8,123.3z M195.9,118.7c-20.3-0.8-24,4.4-24.1,4.7c0.2,0.2,3.8,5.5,24.1,4.7
		c6.8-0.3,45.8-1.1,50.8-4.7v0C241.8,119.8,202.7,118.9,195.9,118.7 M192,135.7l-6.3-1c-1.6,8.5-4.9,16.7-10,24.1l5.3,3.7
		C186.5,154.3,190.2,145.2,192,135.7 M157.7,157.7c0,0,1,8.6,10.8,18.4c8.2,8.3,23,18.5,27.3,19.7c-1.2-4.2-11.4-19.1-19.7-27.3
		C166.3,158.7,157.7,157.7,157.7,157.7 M134.7,185.6l1,6.3c9.8-1.8,18.9-5.5,26.9-10.9l-3.7-5.3C151.8,180.7,143.6,184,134.7,185.6
		 M65.7,162.7l5.2-3.7c-4.8-7.2-8.2-15.4-9.8-24.2l-6.3,1C56.5,145.6,60.3,154.7,65.7,162.7 M123.3,74.9c0.2-0.2,5.5-3.8,4.7-24.2
		c-0.3-6.8-1.2-45.8-4.7-50.8h0c-3.5,4.9-4.4,44-4.7,50.8C117.9,71.1,123.1,74.7,123.3,74.9 M162.6,65.9
		c-8.2-5.7-17.4-9.4-26.8-11.1l-1,6.4c8.5,1.6,16.7,4.9,24.1,10L162.6,65.9z M123.4,74.9C123.4,74.9,123.3,74.9,123.4,74.9
		C123.3,74.9,123.3,74.9,123.4,74.9L123.4,74.9z M176.1,78.3c8.2-8.2,18.5-23,19.7-27.3c-4.3,1.2-19.1,11.4-27.3,19.7
		c-9.8,9.9-10.8,18.4-10.8,18.4S166.3,88.1,176.1,78.3 M185.6,112l6.3-1c-1.8-9.8-5.5-19-10.9-26.9l-5.2,3.7
		C180.6,95,184,103.2,185.6,112 M74.9,123.4c-0.2-0.2-3.8-5.5-24.2-4.7c-6.8,0.3-45.8,1.1-50.7,4.7v0c4.9,3.5,44,4.4,50.7,4.7
		C71.1,128.8,74.7,123.6,74.9,123.4 M112,61.1l-1-6.4C101.1,56.5,92,60.3,84,65.7l3.7,5.2C94.9,66.1,103.1,62.7,112,61.1
		 M74.9,123.3C74.9,123.3,74.9,123.3,74.9,123.3C74.9,123.4,74.9,123.4,74.9,123.3L74.9,123.3z M54.7,111l6.3,1
		c1.6-8.5,5-16.7,10-24.1l-5.2-3.7C60.2,92.4,56.5,101.5,54.7,111 M89,89c0,0-1-8.6-10.8-18.5c-8.2-8.2-23-18.5-27.3-19.7
		c1.2,4.3,11.4,19.1,19.7,27.3C80.5,88,89,89,89,89 M93.9,123.3c0,16.3,13.2,29.4,29.4,29.4c16.2,0,29.4-13.2,29.4-29.4
		c0-16.3-13.2-29.4-29.4-29.4C107.1,93.9,93.9,107.1,93.9,123.3"/>
	<path class="st0" d="M651.7,62h-9v51.6h9V62z M671.1,189.5c0,4.7-3.8,7.1-10,7.1H646v-14.3h14.5c7.2,0,10.7,2.6,10.7,7V189.5z
		 M646,160.9h13.1c5.9,0,9.1,2.5,9.1,6.6v0.2c0,4.7-3.9,7.1-9.8,7.1H646V160.9z M670,177.7c3.9-2,7.4-5.3,7.4-11.6V166
		c0-3.5-1.2-6.3-3.5-8.6c-3-3-7.6-4.6-13.6-4.6H637v52H661c11.6,0,19.2-5,19.2-14.3v-0.1C680.3,183.3,676,179.8,670,177.7
		 M691.1,204.7h9.1v-52h-9.1V204.7z M592,184.1l8.9-20.8l9,20.8H592z M596.8,152.4l-22.9,52.3h9.4l5.3-12.5h24.6l5.3,12.5h9.6
		l-22.9-52.3H596.8z M745.5,83c1.6,1.9,2.5,5.2,2.5,9.6v20.9h74.2V73.7h-9v31.7H757V92.6c0-3.2-0.3-6.1-0.9-8.5
		c-0.6-2.5-1.6-4.6-3-6.4c-1.4-1.7-3.4-3.1-5.7-3.9c-2.3-0.9-5.3-1.3-8.7-1.3c-2.1,0-4.3,0.1-6.4,0.4c-2.1,0.3-4.3,0.7-6.6,1.2
		l-0.6,0.1v31.2h-9.7c-4.9,0-9-0.5-12.1-1.4c-3.1-0.9-5.6-2.2-7.3-3.8c-1.7-1.6-3-3.6-3.7-5.8c-0.7-2.3-1-4.8-1-7.5
		c0-2.3,0.2-4.4,0.5-6.5c0.3-1.9,0.6-3.8,1-5.9l0.2-1.4h-9.3l-0.1,0.5c-0.3,1.5-0.6,4-0.9,6.2l-0.3,1.9c-0.3,2.4-0.6,4.3-0.5,6.1
		c0.2,4.6,0.7,7.7,1.8,10.5c1.2,3.2,3.1,5.9,5.6,8.1c2.5,2.2,5.9,4,10,5.2c4,1.2,9,1.8,14.7,1.8H734V80.4c0.4-0.1,0.9-0.1,1.5-0.1
		c1,0,1.7-0.1,2.3-0.1C741.3,80.2,743.8,81.1,745.5,83 M555.3,105.5h-5c-3.8,0-6.7-1.1-8.7-3.3c-2-2.2-3-5.5-3-9.9
		c0-2,0.4-3.9,1.1-5.4c0.7-1.5,1.6-2.8,2.6-3.8c1-1,2.2-1.7,3.5-2.2c1.3-0.5,2.5-0.7,3.7-0.7c0.3,0,0.8,0,1.3,0l1.8,0.1
		c0.6,0,1.2,0.1,1.8,0.2c0.3,0,0.6,0.1,0.9,0.2V105.5z M620.4,105.5h-56.1V73.8l-0.6-0.1c-2.3-0.4-4.5-0.7-6.5-0.9
		c-2-0.2-4.3-0.3-6.8-0.3c-3.3,0-6.3,0.6-8.9,1.7c-2.6,1.1-4.9,2.7-6.7,4.7c-1.8,2-3.2,4.3-4.2,6.9c-0.9,2.6-1.4,5.3-1.4,8.2
		c0,2.5,0.4,4.9,1.1,7.2c0.7,2.3,1.9,4.4,3.5,6.3c1.6,1.8,3.7,3.3,6.2,4.4c2.5,1.1,5.6,1.7,9.2,1.7h6.1c-0.4,7.9-5.4,11.8-15.2,11.8
		c-1.9,0-3.8-0.2-5.8-0.4c-1.9-0.3-3.9-0.7-5.7-1.1l-1-0.2l0.7,9.9l0.6,0.1c1.4,0.2,3.1,0.4,5,0.6c2.1,0.2,4.6,0.3,6.1,0.3
		c4.4,0,7.7-0.6,11-2c3.2-1.3,5.7-3,7.6-5.1c1.9-2.1,3.3-4.4,4.2-6.9c0.8-2.3,1.2-4.5,1.4-6.8h65.3V73.7h-9V105.5z M624.1,128.3
		c0.9-1,1.4-2.2,1.4-3.6s-0.5-2.6-1.4-3.6c-0.9-1-2.2-1.5-3.7-1.5s-2.7,0.5-3.7,1.5c-1,1-1.5,2.2-1.5,3.6s0.5,2.6,1.5,3.7
		c1,1,2.3,1.6,3.7,1.6C621.9,129.9,623.1,129.3,624.1,128.3 M969.5,174.6c-9.9-2.4-12.3-4.2-12.3-8.2v-0.2c0-3.4,3.1-6.2,8.5-6.2
		c4.7,0,9.4,1.9,14.1,5.3l4.9-6.9c-5.3-4.2-11.3-6.5-18.9-6.5c-10.3,0-17.7,6.2-17.7,15.1v0.2c0,9.6,6.2,12.8,17.3,15.5
		c9.6,2.2,11.7,4.2,11.7,7.9v0.2c0,3.9-3.6,6.5-9.2,6.5c-6.5,0-11.4-2.5-16.4-6.8l-5.5,6.5c6.2,5.6,13.7,8.3,21.7,8.3
		c10.9,0,18.6-5.8,18.6-15.5v-0.2C986.2,181.2,980.4,177.3,969.5,174.6 M767.3,170.5c0,5.4-4.3,9.3-11.2,9.3h-10.6v-18.7h10.6
		c6.8,0,11.2,3.2,11.2,9.3V170.5z M756.8,152.8h-20.5v52h9.1V188h10.3c11.4,0,20.8-6.1,20.8-17.7v-0.2
		C776.6,159.7,768.9,152.8,756.8,152.8 M555.9,174.4h-24.8v-21.6H522v52h9.1v-21.9h24.8v21.9h9.1v-52h-9.1V174.4z M977.7,95.4
		c0,7-4.8,12-11.4,12c-6.4,0-11.5-5.3-11.5-12.2v-0.1c0-7,4.8-12,11.4-12c6.6,0,11.6,5.2,11.6,12.2V95.4z M880.6,105.5h-5
		c-3.8,0-6.7-1.1-8.7-3.3c-2-2.2-3-5.5-3-9.9c0-2.1,0.4-3.9,1.1-5.4c0.7-1.5,1.6-2.8,2.6-3.8c1-1,2.2-1.7,3.5-2.2
		c1.3-0.5,2.5-0.7,3.7-0.7c0.3,0,0.8,0,1.3,0l1.8,0.1c0.6,0,1.2,0.1,1.8,0.2c0.3,0,0.6,0.1,0.9,0.2V105.5z M966.2,75.1
		c-11.3,0-20.3,8.6-20.6,19.7l0,0.2l0.2,0l-0.2,0.2l0,0.2v0.2c0,1.9-0.3,3.5-0.7,4.7c-0.4,1.4-1,2.5-1.7,3.2
		c-0.7,0.8-1.5,1.3-2.4,1.6c-0.9,0.3-1.9,0.5-2.9,0.5h-48.5V73.8l-0.6-0.1c-2.3-0.4-4.5-0.7-6.5-0.9c-2-0.2-4.3-0.3-6.8-0.3
		c-3.3,0-6.3,0.6-8.9,1.7c-2.6,1.1-4.9,2.7-6.7,4.7c-1.8,2-3.2,4.3-4.2,6.9c-0.9,2.6-1.4,5.3-1.4,8.2c0,2.5,0.4,4.9,1.1,7.2
		c0.7,2.3,1.9,4.4,3.5,6.3c1.6,1.8,3.7,3.3,6.2,4.4c2.5,1.1,5.6,1.7,9.2,1.7h6.1c-0.4,7.9-5.4,11.8-15.2,11.8
		c-1.9,0-3.8-0.2-5.8-0.4c-1.9-0.3-3.9-0.7-5.7-1.1l-1-0.2l0.7,9.9l0.6,0.1c1.4,0.2,3.1,0.4,5,0.6c2,0.2,3.8,0.3,5.5,0.3
		c4.6,0,8.5-0.7,11.6-2c3.2-1.3,5.7-3,7.6-5.1c1.9-2.1,3.3-4.4,4.2-6.9c0.8-2.3,1.2-4.5,1.4-6.8h48.2c3.2-0.1,6-0.9,7.9-2.4
		c1.5-1.2,2.8-2.6,3.6-4.3c3.8,5.4,10,8.6,16.9,8.6c11.6,0,20.7-8.8,20.7-20.1v-0.1C986.8,83.9,977.8,75.1,966.2,75.1 M898.7,161.2
		h16.5v43.5h9.2v-43.5h16.5v-8.5h-42.2V161.2z M828.4,178.9c0,10.1-7.2,18.3-17.5,18.3c-10.3,0-17.7-8.4-17.7-18.5v-0.2
		c0-10.1,7.2-18.3,17.5-18.3c10.3,0,17.7,8.4,17.7,18.5V178.9z M810.9,151.9c-16,0-27.2,12.2-27.2,26.9v0.1
		c0,14.6,11.1,26.7,27.1,26.7c16,0,27.2-12.2,27.2-26.9v-0.2C838,164,826.8,151.9,810.9,151.9 M835.4,113.5h9V51h-9V113.5z
		 M858.1,178.5v-17.4h13.3c6.8,0,10.8,3,10.8,8.6v0.1c0,5.3-4.2,8.7-10.7,8.7H858.1z M891.5,169.3v-0.1c0-4.5-1.6-8.4-4.3-11.2
		c-3.3-3.3-8.5-5.2-15-5.2H849v52h9.1v-18.1h11.4l12.8,18.1h10.8l-14-19.7C886.3,183,891.5,177.9,891.5,169.3 M652.7,50.9H649
		c-1.5,0-2.6-0.3-3.3-0.9c-0.6-0.6-0.9-1.3-0.9-2.1c0-0.8,0.3-1.4,0.8-1.8c0.5-0.4,1.4-0.7,2.5-0.7c0.3,0,0.6,0,1,0
		c0.4,0,0.9,0.1,1.4,0.1l0.2,0l1.1-4.5l-0.2,0c-0.7-0.1-1.4-0.2-2.1-0.2c-0.6-0.1-1.2-0.1-1.8-0.1c-2.4,0-4.4,0.6-5.9,1.8
		c-1.6,1.2-2.3,2.8-2.3,4.8c0,1.1,0.2,2,0.5,2.6c0,0,0.1,0.1,0.1,0.1c0,0.1,0.1,0.1,0.2,0.2l0.4,0.6l-0.7-0.1c-0.2,0-0.4,0-0.6,0
		c-0.1,0-0.2,0-0.4,0h-0.1c-0.8,0-1.5,0-2.1,0l-0.8,0v5.2h16.9V50.9z M366.1,189.5c0,4.7-3.8,7.1-10,7.1h-15.1v-14.3h14.5
		c7.2,0,10.7,2.6,10.7,7V189.5z M340.9,160.9h13.1c5.9,0,9.1,2.5,9.1,6.6v0.2c0,4.7-3.9,7.1-9.8,7.1h-12.5V160.9z M364.9,177.7
		c3.9-2,7.4-5.3,7.4-11.6V166c0-3.5-1.2-6.3-3.5-8.6c-3-3-7.6-4.6-13.6-4.6h-23.3v52H356c11.6,0,19.2-5,19.2-14.3v-0.1
		C375.2,183.3,371,179.8,364.9,177.7 M305,129.8c1.7,0,3.1-0.7,4.1-2.1c0.6-0.8,0.9-1.7,1-2.7c0.1-1.6-0.4-2.9-1.4-4
		c-1-1-2.2-1.5-3.7-1.5c-1.5,0-2.7,0.5-3.7,1.5c-1,1-1.4,2.2-1.4,3.6c0,1.4,0.5,2.6,1.4,3.6C302.3,129.3,303.5,129.8,305,129.8
		 M321.1,128.3c0.9-1,1.4-2.2,1.4-3.6s-0.5-2.6-1.4-3.6c-0.9-1-2.2-1.5-3.7-1.5c-1.5,0-2.7,0.5-3.7,1.5c-1,1-1.5,2.2-1.5,3.6
		s0.5,2.6,1.5,3.7c1,1,2.3,1.6,3.7,1.6S320.1,129.3,321.1,128.3 M286.9,184.1l8.9-20.8l9,20.8H286.9z M291.7,152.4l-22.9,52.3h9.4
		l5.3-12.5h24.6l5.3,12.5h9.7l-22.9-52.3H291.7z M492.1,67.9c1.5,0,2.7-0.5,3.7-1.6c0.9-1,1.4-2.2,1.4-3.6c0-1.4-0.5-2.6-1.4-3.6
		c-0.9-1-2.2-1.5-3.7-1.5c-1.5,0-2.7,0.5-3.7,1.5c-1,1-1.5,2.2-1.5,3.6c0,1.4,0.5,2.6,1.5,3.6C489.4,67.4,490.6,67.9,492.1,67.9
		 M817.7,67.9c1.5,0,2.7-0.5,3.7-1.6c0.9-1,1.4-2.2,1.4-3.6c0-1.4-0.5-2.6-1.4-3.6c-0.9-1-2.2-1.5-3.7-1.5c-1.5,0-2.7,0.5-3.7,1.5
		c-1,1-1.5,2.2-1.5,3.6c0,1.4,0.5,2.6,1.5,3.6C815,67.4,816.2,67.9,817.7,67.9 M511.3,105.5h-31c1.3-3.6,2.9-6.9,4.6-9.8
		c1.8-3.2,3.8-5.9,5.9-8.2c2.1-2.2,4.2-4,6.2-5.1c2-1.2,3.9-1.7,5.6-1.7c1.6,0,2.9,0.3,4,0.9c1.1,0.6,2,1.5,2.7,2.5
		c0.7,1.1,1.2,2.4,1.5,4c0.3,1.6,0.5,3.4,0.5,5.3V105.5z M504,72.4c-2.8,0-5.6,0.7-8.3,2.1c-2.7,1.4-5.2,3.2-7.5,5.5
		c-2.3,2.2-4.4,4.7-6.3,7.5c-1,1.4-1.8,2.9-2.6,4.2c0-0.4,0.1-0.8,0.1-1.3c0.1-1.4,0.3-3,0.4-5c0.1-2,0.2-4,0.2-6V50.9h-9v54.5
		h-56.2V73.7h-9v31.8h-56.4V92.6c0-3.2-0.3-6.1-0.9-8.5c-0.6-2.5-1.6-4.6-3-6.4c-1.4-1.7-3.4-3.1-5.7-3.9c-2.3-0.9-5.3-1.3-8.7-1.3
		c-2.1,0-4.3,0.1-6.4,0.4c-2.1,0.3-4.3,0.7-6.6,1.2l-0.6,0.1v31.2h-9.7c-4.9,0-9-0.5-12.1-1.4c-3.1-0.9-5.6-2.2-7.3-3.8
		c-1.7-1.6-3-3.6-3.7-5.8c-0.7-2.3-1-4.8-1-7.5c0-2.3,0.2-4.4,0.5-6.4l0-0.3c0.3-1.8,0.6-3.7,1-5.7l0.2-1.4H276l-0.1,0.5
		c-0.3,1.5-0.6,4-0.9,6.2l-0.3,1.9c-0.3,2.4-0.6,4.3-0.5,6.1c0.2,4.6,0.7,7.7,1.8,10.5c1.2,3.2,3.1,5.9,5.6,8.1
		c2.5,2.2,5.9,4,10,5.2c4,1.2,9,1.8,14.7,1.8h20.2V80.4c0.4-0.1,0.9-0.1,1.5-0.1c1,0,1.7-0.1,2.3-0.1c3.4,0,6,1,7.6,2.9
		c1.6,1.9,2.5,5.2,2.5,9.6v20.9h180.3V92.2c0-6.5-1.5-11.5-4.5-14.8C513.2,74.1,509.1,72.4,504,72.4 M696.7,59.5H693
		c-1.5,0-2.6-0.3-3.3-0.9c-0.6-0.6-0.9-1.3-0.9-2.1c0-0.8,0.3-1.4,0.8-1.8c0.6-0.4,1.4-0.6,2.6-0.6c0.3,0,0.6,0,0.9,0
		c0.4,0,0.9,0.1,1.4,0.1l0.2,0l1.1-4.5l-0.2,0c-0.8-0.1-1.5-0.2-2.1-0.2c-0.6-0.1-1.2-0.1-1.8-0.1c-2.4,0-4.4,0.6-5.9,1.8
		c-1.6,1.2-2.3,2.8-2.3,4.8c0,1.1,0.2,2,0.5,2.7c0,0.1,0.1,0.1,0.1,0.2c0,0,0.1,0.1,0.1,0.2l0.4,0.6l-0.7-0.1c-0.2,0-0.4,0-0.6,0
		c-0.1,0-0.2,0-0.4,0h-0.1c-0.8,0-1.5,0-2.1,0l-0.9,0v5.2h16.9V59.5z M501.4,178.9c0,10.2-7.1,17.5-18,17.5h-10.2v-35.3h10.2
		c10.9,0,18,7.5,18,17.7V178.9z M483.3,152.8h-19.4v52h19.4c16.3,0,27.6-11.4,27.6-26v-0.2C510.9,164,499.7,152.8,483.3,152.8
		 M414,128.3c0.9-1,1.4-2.2,1.4-3.6s-0.5-2.6-1.4-3.6c-0.9-1-2.2-1.5-3.7-1.5c-1.5,0-2.7,0.5-3.7,1.5c-1,1-1.5,2.2-1.5,3.6
		s0.5,2.6,1.5,3.7c1,1,2.3,1.6,3.7,1.6C411.8,129.9,413,129.3,414,128.3 M420,182.7c0,9.6-5,14.5-13.1,14.5
		c-8.2,0-13.1-5.2-13.1-14.8v-29.5h-9.1v29.9c0,15.1,8.6,22.9,22.1,22.9c13.6,0,22.3-7.8,22.3-23.3v-29.5H420V182.7z"/>
</g>
</svg>
